<?xml version="1.0" encoding="utf-8"?>
<!DOCTYPE svg PUBLIC "-//W3C//DTD SVG 20010904//EN" "http://www.w3.org/TR/2001/REC-SVG-20010904/DTD/svg10.dtd">
<svg version="1.0" xmlns="http://www.w3.org/2000/svg" width="913px" height="357px" viewBox="0 0 913 357" preserveAspectRatio="xMidYMid meet">
 <g fill="#000000">
  <path d="M34.4 345.3 c2.4 -39.5 17 -78 41 -108.2 6.1 -7.6 18.9 -20.9 25.9 -26.8 4.8 -4.1 4.8 -4.1 -0.2 -5.8 -6 -2 -13.2 -8.1 -16.9 -14.3 -2.5 -4.3 -2.7 -5.6 -2.7 -14.7 0 -11.6 1.4 -15.2 8.7 -22.2 6.2 -6 12.5 -8.5 21.3 -8.5 9 0 15.2 2.5 21.7 8.9 6.3 6.2 9.1 12.8 9.2 22.1 0 3.9 0.1 7.2 0.2 7.2 0.1 0 3.4 -1.5 7.5 -3.4 4.1 -1.9 11.8 -4.9 17.2 -6.6 5.3 -1.8 9.7 -3.6 9.7 -4 0 -0.4 -0.7 -1.3 -1.6 -2.1 -0.8 -0.7 -2.7 -3.6 -4.1 -6.3 -9.3 -18.3 -6.1 -37.9 8.6 -51.9 12.2 -11.6 28.2 -15.3 43.9 -10 2.4 0.8 4.6 1.2 4.8 1 0.3 -0.2 1.2 -3.3 2.1 -6.8 6.8 -27.3 29.5 -51.7 56.9 -60.8 23 -7.7 45.6 -6.2 67 4.4 29.8 14.6 47.6 41.8 49.1 74.7 0.6 11.7 0.6 11.7 9.7 7.1 12.4 -6.2 27.8 -11.6 41.6 -14.4 10 -2.1 14.2 -2.4 32.5 -2.3 23.6 0 33.3 1.5 51.6 7.7 10 3.5 10 3.5 9.5 -0.2 -1.4 -8.5 3.1 -22.4 10.1 -30.9 16.4 -20 50.3 -20 66.6 0 20.2 24.9 10 59.8 -20.6 70.2 -1.5 0.5 -0.6 1.9 5.4 8.8 18.1 21 31.6 48.7 36.9 76.1 0.8 3.7 1.6 5.6 2.3 5.3 0.7 -0.2 5.3 -1.8 10.2 -3.4 38.9 -12.9 81.9 -10.3 119 7.2 18.7 8.9 32.9 19.1 48 34.7 15.1 15.6 24.1 28.8 32.5 47.8 3.8 8.7 10 27.7 10 30.7 0 1.1 -2.9 1.4 -14.3 1.4 -14.3 0 -14.3 0 -17.1 -8.7 -10.6 -32.5 -34.9 -61.4 -65.6 -77.7 -37 -19.6 -83.6 -20.1 -121.4 -1.4 -8.4 4.1 -21.6 12.6 -27.7 17.7 -3.6 3 -3.6 3 -2.7 -2.2 1.6 -8.8 1.3 -34.2 -0.5 -44.3 -4.8 -26.9 -16.5 -49.8 -35.4 -69.5 -22.7 -23.6 -48.4 -36.5 -81.6 -40.9 -27.7 -3.6 -58.9 3 -84.1 17.9 -21.9 12.9 -39.3 31.5 -51.2 54.8 -6.3 12.3 -9.8 22.4 -12.4 36.3 -1.2 5.7 -2.2 10.5 -2.4 10.7 -0.1 0.2 -2.6 -2.4 -5.5 -5.7 -7 -8 -22.7 -21 -32.8 -27.1 -26.2 -15.8 -51.7 -23.6 -80.9 -24.6 -32.3 -1.2 -60.7 5.7 -87.4 21 -14.5 8.3 -23.7 15.4 -36 27.7 -28.5 28.5 -44.4 64.4 -47.6 106.8 -0.7 9.2 -0.7 9.2 -14.7 9.2 -14 0 -14 0 -13.3 -11.7z"/>
 </g>
</svg>