<?xml version="1.0" standalone="no"?>
<!DOCTYPE svg PUBLIC "-//W3C//DTD SVG 20010904//EN"
 "http://www.w3.org/TR/2001/REC-SVG-20010904/DTD/svg10.dtd">
<svg version="1.0" xmlns="http://www.w3.org/2000/svg"
 width="1278.000000pt" height="1163.000000pt" viewBox="0 0 1278.000000 1163.000000"
 preserveAspectRatio="xMidYMid meet">
<metadata>
Created by potrace 1.16, written by Peter Selinger 2001-2019
</metadata>
<g transform="translate(0.000000,1163.000000) scale(0.100000,-0.100000)"
fill="#000000" stroke="none">
<path d="M4163 11520 c-458 -52 -854 -323 -1060 -725 -53 -104 -105 -248 -118
-325 -4 -25 -9 -48 -11 -52 -2 -3 -37 5 -76 20 -98 34 -253 42 -362 17 -91
-20 -212 -78 -281 -136 -150 -124 -245 -325 -245 -519 0 -136 54 -297 135
-403 25 -33 32 -49 23 -52 -7 -2 -58 -19 -113 -36 -99 -31 -240 -85 -345 -132
l-55 -25 0 112 c-1 132 -20 192 -93 289 -215 281 -656 233 -810 -90 -37 -77
-37 -79 -37 -203 0 -123 1 -126 36 -200 59 -123 149 -207 266 -248 26 -9 50
-20 53 -24 3 -4 -44 -52 -105 -105 -526 -471 -867 -1137 -951 -1859 -23 -195
-15 -595 15 -779 89 -546 309 -1028 659 -1445 100 -120 312 -326 419 -409 l83
-64 2 -1992 3 -1991 25 -37 c43 -65 93 -91 175 -95 80 -4 128 13 177 65 62 65
58 -75 58 1938 0 1009 2 1835 5 1835 2 0 46 -19 97 -41 132 -59 277 -112 391
-144 l97 -28 0 -1151 c0 -1076 1 -1153 18 -1185 26 -52 63 -75 121 -75 56 0
93 20 121 67 19 31 20 60 20 1161 l0 1129 38 -6 c217 -35 598 -33 832 2 769
117 1453 524 1920 1142 48 64 92 125 98 135 11 18 12 18 29 -6 76 -109 205
-202 339 -246 79 -26 103 -29 209 -29 86 1 137 6 180 19 264 79 454 302 484
566 8 75 2 189 -15 254 l-7 27 74 -8 c119 -13 442 -7 562 11 162 24 327 63
473 112 73 24 135 44 138 44 3 0 6 -10 6 -21 0 -45 53 -260 96 -389 57 -172
179 -421 281 -575 349 -527 877 -900 1487 -1050 316 -77 725 -89 1041 -30 405
77 797 258 1122 520 420 338 731 841 860 1390 l28 120 0 415 c0 475 -3 503
-95 780 -126 382 -328 711 -609 990 -316 314 -695 532 -1122 645 -223 58 -380
78 -634 78 -298 0 -527 -36 -784 -124 -174 -60 -155 -63 -170 27 -69 411 -312
901 -595 1202 -68 71 -79 92 -49 92 33 0 179 79 234 127 79 69 124 127 170
218 154 310 42 694 -254 873 -97 58 -188 85 -314 90 -211 9 -367 -50 -508
-192 -132 -133 -195 -284 -195 -468 0 -48 -3 -88 -7 -88 -5 0 -52 16 -105 35
-115 41 -262 79 -408 107 -157 29 -539 36 -720 14 -315 -40 -606 -131 -867
-272 -46 -24 -84 -44 -86 -44 -2 0 -3 56 -4 124 -5 509 -291 964 -751 1195
-88 44 -250 97 -353 115 -110 19 -294 27 -386 16z m2948 -1560 c978 -97 1743
-856 1850 -1836 13 -126 6 -418 -14 -535 l-13 -77 78 64 c740 602 1790 621
2547 45 626 -477 926 -1282 766 -2055 -147 -710 -669 -1297 -1358 -1528 -979
-328 -2045 118 -2498 1045 -178 364 -245 769 -193 1167 8 67 14 123 12 125 -2
2 -30 -19 -63 -47 -33 -27 -113 -85 -177 -128 -782 -522 -1833 -437 -2527 206
l-59 55 -6 -78 c-23 -287 -73 -537 -150 -748 -154 -419 -438 -814 -787 -1095
-1108 -892 -2734 -686 -3588 454 -613 818 -666 1941 -133 2810 391 639 1039
1067 1792 1183 162 25 549 25 710 0 453 -71 862 -248 1215 -527 44 -35 142
-125 217 -201 l137 -138 5 32 c22 142 30 184 52 269 132 524 480 988 949 1264
371 218 813 316 1236 274z"/>
<path d="M427 4194 c-70 -22 -131 -86 -153 -161 -52 -177 100 -341 282 -303
132 28 212 152 184 287 -29 138 -176 221 -313 177z"/>
</g>
</svg>
